<svg width="147" height="58" viewBox="0 0 147 58" fill="none" xmlns="http://www.w3.org/2000/svg">
<path d="M41.0306 41.3216L25.2788 57.1869H0L17.9072 39.157L28.3958 28.5967L41.0306 41.3216Z" fill="url(#paint0_linear)"/>
<path d="M53.7133 28.5484L41.0302 41.3216L28.3953 28.5967L17.9067 18.0338V0H25.2784L41.0602 15.8444L53.7133 28.5484Z" fill="url(#paint1_linear)"/>
<path d="M17.9072 0V39.1571L0 57.1869V0H17.9072Z" fill="#FF4DFF"/>
<path d="M69.5273 44.0235V39.1139C69.5273 37.9057 68.8945 36.8085 67.6485 36.8085C66.4025 36.8085 65.6914 37.9057 65.6914 39.1139V44.0235H63.4277V34.8358H65.5283L65.6966 35.9513C66.1794 35.0223 67.2388 34.687 68.113 34.687C69.2102 34.687 70.3075 35.1332 70.8281 36.3988C71.6461 35.0941 72.7069 34.7248 73.8968 34.7248C76.4997 34.7248 77.7835 36.3231 77.7835 39.0761V44.0222H75.5146V39.0774C75.5146 37.8679 75.0123 36.8463 73.7859 36.8463C72.5594 36.8463 71.8001 37.9057 71.8001 39.1139V44.0235H69.5273Z" fill="#2E2F36"/>
<path d="M82.0198 40.2494C82.1699 41.3832 83.1549 42.2064 84.7597 42.2064C85.5961 42.2064 86.6933 41.8907 87.2139 41.3519L88.6647 42.787C87.698 43.7917 86.1166 44.2744 84.7219 44.2744C81.5606 44.2744 79.6831 42.3173 79.6831 39.3843C79.6831 36.5949 81.5789 34.5869 84.5549 34.5869C87.6236 34.5869 89.5389 36.484 89.1853 40.2585L82.0198 40.2494ZM87.0039 38.3706C86.8551 37.1807 85.9262 36.5857 84.624 36.5857C83.3963 36.5857 82.3917 37.1807 82.0577 38.3706H87.0039Z" fill="#2E2F36"/>
<path d="M93.7352 32.271V34.8804H96.2638V36.8375H93.7196V40.7986C93.7196 41.6728 94.2036 42.1033 94.9095 42.1033C95.2917 42.0919 95.6667 41.9965 96.008 41.8241L96.6395 43.7577C96.0445 44.0069 95.4071 44.1398 94.762 44.1491C92.7711 44.2235 91.4703 43.0884 91.4703 40.8012V36.8271H89.7559V34.87H91.4663V32.5137L93.7352 32.271Z" fill="#2E2F36"/>
<path d="M100.223 31.0068V36.0952C101.042 35.0358 102.05 34.7201 103.087 34.7201C105.697 34.7201 106.844 36.4866 106.844 39.1822V44.0174H104.575V39.2083C104.575 37.5343 103.701 36.8272 102.487 36.8272C101.147 36.8272 100.218 37.9623 100.218 39.3374V44.024H97.9546V31.0068H100.223Z" fill="#2E2F36"/>
<path d="M117.87 39.4496C117.87 42.0903 116.065 44.2287 113.09 44.2287C110.116 44.2287 108.332 42.0903 108.332 39.4496C108.332 36.8088 110.159 34.6704 113.073 34.6704C115.988 34.6704 117.87 36.8271 117.87 39.4496ZM110.598 39.4496C110.598 40.8443 111.435 42.1464 113.09 42.1464C114.746 42.1464 115.581 40.8417 115.581 39.4496C115.581 38.0574 114.614 36.7345 113.09 36.7345C111.453 36.7345 110.598 38.0731 110.598 39.4496Z" fill="#2E2F36"/>
<path d="M128.946 31.0264V44.0239H126.83L126.681 42.7597C125.975 43.8569 124.84 44.2301 123.727 44.2301C121.031 44.2301 119.004 42.4452 119.004 39.4326C119.004 36.2713 120.994 34.6339 123.671 34.6339C124.638 34.6339 126.15 35.1558 126.684 36.103V31.0264H128.946ZM121.267 39.4313C121.267 41.0296 122.419 42.1269 123.876 42.1269C125.334 42.1269 126.535 41.0831 126.535 39.4313C126.544 39.079 126.481 38.7285 126.35 38.4011C126.22 38.0737 126.024 37.7759 125.776 37.5258C125.528 37.2756 125.232 37.0782 124.905 36.9454C124.579 36.8126 124.229 36.747 123.876 36.7528C122.423 36.7528 121.271 37.7756 121.271 39.4313H121.267Z" fill="#2E2F36"/>
<path d="M136.22 31.137C134.118 32.811 133.057 35.2651 133.057 37.9059C133.057 40.7332 134.118 42.9642 136.22 44.6186L134.992 46.2743C132.09 44.359 130.714 41.0489 130.714 37.9059C130.714 34.8007 132.184 31.565 135.085 29.6118L136.22 31.137Z" fill="#2E2F36"/>
<path d="M141.722 29.6172C144.623 31.5743 146.093 34.806 146.093 37.9113C146.093 41.0543 144.717 44.3644 141.815 46.2797L140.625 44.5836C142.727 42.9279 143.756 40.7347 143.756 37.9073C143.756 35.2666 142.696 32.819 140.594 31.1385L141.722 29.6172Z" fill="#2E2F36"/>
<path d="M72.9484 11.0903V24.0892H70.8283L70.6795 22.8249C69.9737 23.9222 68.8386 24.294 67.7231 24.294C65.0275 24.294 63 22.5079 63 19.4953C63 16.334 64.9897 14.6979 67.667 14.6979C68.6338 14.6979 70.1459 15.2198 70.6795 16.167V11.0903H72.9484ZM65.2689 19.4953C65.2689 21.0949 66.421 22.1921 67.8718 22.1921C69.3226 22.1921 70.5308 21.1484 70.5308 19.4953C70.54 19.1427 70.4777 18.792 70.3476 18.4642C70.2175 18.1364 70.0222 17.8384 69.7737 17.5881C69.5252 17.3379 69.2285 17.1407 68.9016 17.0083C68.5747 16.8759 68.2244 16.8112 67.8718 16.818C66.421 16.8128 65.2689 17.8357 65.2689 19.4901V19.4953Z" fill="#2E2F36"/>
<path d="M77.055 20.3078C77.205 21.4429 78.1901 22.2649 79.7949 22.2649C80.6312 22.2649 81.7285 21.9491 82.2491 21.4103L83.6999 22.8455C82.7331 23.8501 81.1518 24.3329 79.7571 24.3329C76.5957 24.3329 74.7183 22.3758 74.7183 19.4428C74.7183 16.6533 76.614 14.644 79.5901 14.644C82.6587 14.644 84.5741 16.5411 84.2205 20.3156L77.055 20.3078ZM82.039 18.4303C81.8903 17.2404 80.9613 16.6455 79.6592 16.6455C78.4315 16.6455 77.4268 17.2404 77.0928 18.4303H82.039Z" fill="#2E2F36"/>
<path d="M86.7051 24.084V17.0385H84.9946V15.0462H86.7051V14.433C86.7051 11.9775 88.3608 10.8438 90.2017 10.8438C91.05 10.8579 91.8762 11.1161 92.5815 11.5874L91.7452 13.2836C91.2612 12.9678 90.815 12.7995 90.3505 12.7995C89.5677 12.7995 88.974 13.3214 88.974 14.4369V15.0501H91.6709V17.0398H88.974V24.0853L86.7051 24.084Z" fill="#2E2F36"/>
<defs>
<linearGradient id="paint0_linear" x1="6.32134" y1="63.6322" x2="40.5205" y2="28.992" gradientUnits="userSpaceOnUse">
<stop offset="0.11" stop-color="#F016FF"/>
<stop offset="0.12" stop-color="#F410FF"/>
<stop offset="0.32" stop-color="#D936FF"/>
<stop offset="0.54" stop-color="#B171FF"/>
<stop offset="0.76" stop-color="#89A8FF"/>
<stop offset="0.82" stop-color="#5CC9FF"/>
</linearGradient>
<linearGradient id="paint1_linear" x1="15.052" y1="2.16713" x2="48.2244" y2="35.9266" gradientUnits="userSpaceOnUse">
<stop offset="0.05" stop-color="#B64AEF"/>
<stop offset="0.29" stop-color="#AA7AFA"/>
<stop offset="0.52" stop-color="#93A8F8"/>
<stop offset="0.66" stop-color="#86C4F7"/>
<stop offset="1" stop-color="#6DF9F4"/>
</linearGradient>
</defs>
</svg>
