<svg width="300" height="71" viewBox="0 0 300 71" fill="none" xmlns="http://www.w3.org/2000/svg">
<path d="M28.8976 17.5165C18.9719 17.5165 13.3102 21.2378 9.93021 26.1032V18.3755H0V69.6697H9.92575V41.832C9.92575 30.8633 15.8151 25.0529 25.406 25.0529C36.7382 25.0529 38.2653 31.9137 38.2653 39.8288V69.6697H48.191V37.2555C48.191 25.5331 43.0652 17.5204 28.8932 17.5204" fill="#250042"/>
<path d="M65.8674 18.3552H56.1204V69.6807H65.8674V18.3552Z" fill="#250042"/>
<path d="M65.8674 0.432556H56.1204V11.0459H65.8674V0.432556Z" fill="#250042"/>
<path d="M116.756 18.3659L100.842 57.641L84.9247 18.3659H73.9182L96.0428 69.6603H104.874L126.999 18.3659H116.756Z" fill="#250042"/>
<path d="M153.843 63.4593C143.707 63.4593 137.054 56.4069 137.054 44.2082C137.054 32.0094 143.707 24.9494 153.843 24.9494C162.67 24.9494 170.957 30.674 170.957 44.2082C170.957 57.7426 162.666 63.4593 153.843 63.4593ZM170.52 18.3658V26.4723C166.921 21.0368 160.701 17.5068 151.333 17.5068C137.925 17.5068 126.486 27.3314 126.486 44.2082C126.486 61.0851 137.93 70.9017 151.333 70.9017C160.705 70.9017 166.921 67.3717 170.52 61.9361V69.6637H180.437V18.3658H170.52Z" fill="#250042"/>
<path fill-rule="evenodd" clip-rule="evenodd" d="M289.253 17.8401C290.575 17.8401 291.574 17.969 292.347 18.2463L292.343 18.2501C295.727 19.4255 298.514 22.8071 300 24.8493C268.366 27.2899 242.772 45.0296 235.124 69.732C233.762 68.3807 232.105 66.7018 230.792 65.3702L228.18 62.7381C227.515 62.0629 227.251 61.5081 227.6 60.2001C233.846 36.3648 258.846 18.953 288.378 17.8636C288.686 17.848 288.98 17.8401 289.253 17.8401ZM203.387 39.2147C206.24 39.281 224.042 39.8902 228.78 45.9311H228.775C228.802 45.9664 228.829 45.9998 228.856 46.0329C229 46.2114 229.125 46.3658 228.985 46.6068C226.739 50.1327 224.971 53.9046 223.698 57.876C217.635 51.3042 208.41 42.4557 203.204 39.5505C203.061 39.4021 203.168 39.2069 203.387 39.2147Z" fill="#250042"/>
</svg>
