<svg width="240" height="49" viewBox="0 0 240 49" fill="none" xmlns="http://www.w3.org/2000/svg">
<path fill-rule="evenodd" clip-rule="evenodd" d="M19.9182 14.7065C19.8687 20.1699 21.6472 25.9134 25.4303 25.9524C29.2161 25.9915 31.0963 20.2852 31.1471 14.8232C31.1963 9.36067 29.0816 4.41648 25.6593 0.901733C22.1726 4.34465 19.9697 9.24482 19.9182 14.7065Z" fill="black"/>
<path fill-rule="evenodd" clip-rule="evenodd" d="M14.0982 45.5752C18.5658 42.8896 22.3469 38.378 20.4867 34.8695C18.6268 31.3602 13.0464 32.4781 8.57722 35.1631C4.11071 37.8481 1.14713 42.2705 0 47.1836C4.54341 48.6768 9.62988 48.2605 14.0982 45.5752Z" fill="#FFCC00"/>
<path fill-rule="evenodd" clip-rule="evenodd" d="M42.1124 35.5084C37.6951 32.7309 32.1355 31.499 30.2112 34.9699C28.2883 38.4394 31.9868 43.0272 36.4044 45.8038C40.8225 48.5816 45.9011 49.1026 50.4705 47.7043C49.4138 42.7682 46.5315 38.2857 42.1124 35.5084Z" fill="#F8097C"/>
<path d="M238.599 6.61769C238.478 6.8423 238.348 7.00808 238.207 7.11504C238.076 7.2113 237.911 7.25942 237.71 7.25942C237.499 7.25942 237.268 7.17921 237.017 7.01877C236.776 6.84765 236.484 6.66048 236.143 6.45726C235.801 6.25405 235.4 6.07222 234.938 5.91179C234.486 5.74066 233.948 5.6551 233.325 5.6551C232.763 5.6551 232.271 5.72997 231.849 5.8797C231.427 6.01875 231.07 6.21661 230.779 6.47331C230.498 6.73 230.287 7.04017 230.146 7.40381C230.006 7.75676 229.935 8.14715 229.935 8.57497C229.935 9.12044 230.076 9.575 230.357 9.93865C230.649 10.3023 231.03 10.6125 231.502 10.8692C231.974 11.1258 232.512 11.3558 233.115 11.559C233.717 11.7622 234.335 11.9815 234.968 12.2168C235.601 12.4414 236.218 12.7088 236.821 13.019C237.424 13.3184 237.961 13.7035 238.433 14.1741C238.905 14.634 239.282 15.2008 239.563 15.8747C239.854 16.5485 240 17.3667 240 18.3293C240 19.3774 239.829 20.3614 239.488 21.2812C239.156 22.1903 238.664 22.9872 238.011 23.6717C237.368 24.3455 236.58 24.8803 235.646 25.276C234.712 25.661 233.642 25.8536 232.437 25.8536C231.743 25.8536 231.06 25.7787 230.387 25.629C229.714 25.4899 229.067 25.2867 228.444 25.0193C227.831 24.7519 227.254 24.4311 226.711 24.0567C226.169 23.6824 225.687 23.2652 225.265 22.8053L226.455 20.7358C226.555 20.586 226.686 20.463 226.847 20.3668C227.007 20.2598 227.178 20.2063 227.359 20.2063C227.61 20.2063 227.881 20.3186 228.173 20.5432C228.464 20.7572 228.81 20.9978 229.212 21.2652C229.614 21.5326 230.081 21.7786 230.613 22.0032C231.156 22.2171 231.804 22.324 232.557 22.324C233.712 22.324 234.606 22.0353 235.239 21.4577C235.872 20.8695 236.188 20.0299 236.188 18.9389C236.188 18.3293 236.042 17.8319 235.751 17.4469C235.47 17.0619 235.093 16.741 234.621 16.4843C234.149 16.2169 233.612 15.9923 233.009 15.8105C232.406 15.6287 231.794 15.4308 231.171 15.2169C230.548 15.003 229.935 14.7463 229.333 14.4468C228.73 14.1473 228.193 13.7569 227.721 13.2756C227.249 12.7943 226.867 12.1954 226.576 11.4788C226.294 10.7515 226.154 9.85843 226.154 8.79958C226.154 7.95463 226.309 7.13108 226.621 6.32892C226.942 5.52675 227.404 4.8155 228.007 4.19516C228.61 3.57482 229.353 3.07748 230.237 2.70314C231.121 2.3288 232.135 2.14163 233.28 2.14163C234.566 2.14163 235.751 2.35554 236.836 2.78336C237.921 3.21118 238.845 3.81012 239.608 4.5802L238.599 6.61769Z" fill="black"/>
<path d="M213.808 22.2278C214.561 22.2278 215.194 22.1315 215.706 21.939C216.219 21.7465 216.625 21.4898 216.927 21.1689C217.238 20.8481 217.459 20.4737 217.59 20.0459C217.73 19.6181 217.801 19.1635 217.801 18.6822C217.801 18.1795 217.725 17.7303 217.575 17.3346C217.424 16.9282 217.188 16.5859 216.867 16.3078C216.545 16.019 216.128 15.7998 215.616 15.65C215.114 15.5003 214.506 15.4254 213.793 15.4254H209.71V22.2278H213.808ZM209.71 5.73531V12.4414H212.934C214.32 12.4414 215.365 12.174 216.068 11.6392C216.781 11.1045 217.138 10.2542 217.138 9.08836C217.138 7.87976 216.816 7.01878 216.173 6.50539C215.531 5.99201 214.526 5.73531 213.16 5.73531H209.71ZM213.16 2.39832C214.586 2.39832 215.807 2.54271 216.821 2.83149C217.836 3.12026 218.664 3.53204 219.307 4.06682C219.96 4.60159 220.437 5.24867 220.739 6.00805C221.04 6.76743 221.191 7.62307 221.191 8.57497C221.191 9.12044 221.115 9.64452 220.965 10.1472C220.814 10.6392 220.578 11.1045 220.257 11.543C219.945 11.9708 219.543 12.3612 219.051 12.7141C218.569 13.0671 217.992 13.3666 217.319 13.6126C220.312 14.3292 221.808 16.0511 221.808 18.7785C221.808 19.7625 221.633 20.6716 221.281 21.5058C220.93 22.3401 220.417 23.062 219.744 23.6717C219.071 24.2706 218.243 24.7412 217.258 25.0835C216.274 25.4257 215.149 25.5969 213.883 25.5969H205.657V2.39832H213.16Z" fill="black"/>
<path d="M194.738 16.8372L192.087 9.12044C191.956 8.77819 191.821 8.37176 191.68 7.90115C191.539 7.43055 191.399 6.92252 191.258 6.37704C191.127 6.92252 190.992 7.4359 190.851 7.9172C190.711 8.3878 190.575 8.79958 190.444 9.15253L187.808 16.8372H194.738ZM201.895 25.5969H198.761C198.41 25.5969 198.123 25.506 197.902 25.3241C197.682 25.1316 197.516 24.8963 197.405 24.6182L195.778 19.8855H186.753L185.126 24.6182C185.046 24.8642 184.89 25.0888 184.659 25.292C184.428 25.4953 184.142 25.5969 183.8 25.5969H180.636L189.209 2.39832H193.337L201.895 25.5969Z" fill="black"/>
<path d="M178.827 22.0353V25.5969H166.066V2.39832H170.119V22.0353H178.827Z" fill="black"/>
<path d="M150.963 22.1155C151.747 22.1155 152.445 21.9764 153.057 21.6984C153.68 21.4203 154.202 21.0299 154.624 20.5272C155.046 20.0245 155.368 19.4149 155.589 18.6983C155.82 17.9817 155.935 17.1795 155.935 16.2918V2.39832H159.988V16.2918C159.988 17.6715 159.777 18.9496 159.355 20.1261C158.943 21.2919 158.346 22.3027 157.562 23.1583C156.789 24.0032 155.845 24.6664 154.73 25.1477C153.615 25.6183 152.359 25.8536 150.963 25.8536C149.557 25.8536 148.296 25.6183 147.181 25.1477C146.066 24.6664 145.117 24.0032 144.334 23.1583C143.56 22.3027 142.963 21.2919 142.541 20.1261C142.129 18.9496 141.923 17.6715 141.923 16.2918V2.39832H145.976V16.2757C145.976 17.1635 146.087 17.9656 146.308 18.6822C146.539 19.3988 146.865 20.0138 147.287 20.5272C147.719 21.0299 148.241 21.4203 148.854 21.6984C149.477 21.9764 150.18 22.1155 150.963 22.1155Z" fill="black"/>
<path d="M129.005 22.2278C129.758 22.2278 130.391 22.1315 130.903 21.939C131.416 21.7465 131.822 21.4898 132.124 21.1689C132.435 20.8481 132.656 20.4737 132.787 20.0459C132.927 19.6181 132.998 19.1635 132.998 18.6822C132.998 18.1795 132.922 17.7303 132.772 17.3346C132.621 16.9282 132.385 16.5859 132.063 16.3078C131.742 16.019 131.325 15.7998 130.813 15.65C130.311 15.5003 129.703 15.4254 128.99 15.4254H124.907V22.2278H129.005ZM124.907 5.73531V12.4414H128.131C129.517 12.4414 130.562 12.174 131.265 11.6392C131.978 11.1045 132.335 10.2542 132.335 9.08836C132.335 7.87976 132.013 7.01878 131.37 6.50539C130.727 5.99201 129.723 5.73531 128.357 5.73531H124.907ZM128.357 2.39832C129.783 2.39832 131.004 2.54271 132.018 2.83149C133.033 3.12026 133.861 3.53204 134.504 4.06682C135.157 4.60159 135.634 5.24867 135.936 6.00805C136.237 6.76743 136.388 7.62307 136.388 8.57497C136.388 9.12044 136.312 9.64452 136.162 10.1472C136.011 10.6392 135.775 11.1045 135.453 11.543C135.142 11.9708 134.74 12.3612 134.248 12.7141C133.766 13.0671 133.188 13.3666 132.515 13.6126C135.509 14.3292 137.005 16.0511 137.005 18.7785C137.005 19.7625 136.829 20.6716 136.478 21.5058C136.126 22.3401 135.614 23.062 134.941 23.6717C134.268 24.2706 133.439 24.7412 132.455 25.0835C131.471 25.4257 130.346 25.5969 129.08 25.5969H120.854V2.39832H128.357Z" fill="black"/>
<path d="M114.486 2.39832V25.5969H110.915V10.6125C110.915 10.0135 110.946 9.36644 111.006 8.67123L104.422 21.8427C104.11 22.4738 103.633 22.7893 102.99 22.7893H102.418C101.775 22.7893 101.298 22.4738 100.986 21.8427L94.327 8.6231C94.3571 8.97605 94.3822 9.32366 94.4023 9.66591C94.4224 10.0082 94.4324 10.3237 94.4324 10.6125V25.5969H90.8616V2.39832H93.9202C94.101 2.39832 94.2567 2.40366 94.3872 2.41436C94.5178 2.42506 94.6333 2.45179 94.7338 2.49458C94.8443 2.53736 94.9397 2.60688 95.0201 2.70314C95.1105 2.7994 95.1958 2.92774 95.2762 3.08818L101.8 15.9709C101.971 16.3132 102.127 16.6661 102.267 17.0298C102.418 17.3934 102.563 17.7678 102.704 18.1528C102.845 17.7571 102.99 17.3774 103.141 17.0137C103.292 16.6394 103.452 16.2811 103.623 15.9388L110.057 3.08818C110.137 2.92774 110.222 2.7994 110.313 2.70314C110.403 2.60688 110.499 2.53736 110.599 2.49458C110.71 2.45179 110.83 2.42506 110.961 2.41436C111.091 2.40366 111.247 2.39832 111.428 2.39832H114.486Z" fill="black"/>
<path d="M85.7957 13.9976C85.7957 15.6982 85.5295 17.2758 84.9972 18.7304C84.4748 20.1742 83.7316 21.4256 82.7673 22.4845C81.803 23.5433 80.6429 24.3722 79.2869 24.9712C77.9309 25.5594 76.4242 25.8536 74.7669 25.8536C73.1196 25.8536 71.6179 25.5594 70.2619 24.9712C68.9059 24.3722 67.7408 23.5433 66.7665 22.4845C65.8022 21.4256 65.0539 20.1742 64.5215 18.7304C63.9892 17.2758 63.723 15.6982 63.723 13.9976C63.723 12.297 63.9892 10.7248 64.5215 9.28087C65.0539 7.82629 65.8022 6.56956 66.7665 5.51071C67.7408 4.45185 68.9059 3.6283 70.2619 3.04005C71.6179 2.4411 73.1196 2.14163 74.7669 2.14163C75.8718 2.14163 76.9114 2.28067 77.8857 2.55875C78.86 2.82614 79.7539 3.21118 80.5675 3.71386C81.3811 4.20586 82.1094 4.81015 82.7522 5.52675C83.4051 6.23266 83.9576 7.02412 84.4096 7.90115C84.8615 8.77819 85.2031 9.73009 85.4341 10.7569C85.6752 11.7836 85.7957 12.8639 85.7957 13.9976ZM81.6524 13.9976C81.6524 12.7248 81.4916 11.5858 81.1702 10.5804C80.8488 9.56431 80.3918 8.70332 79.7991 7.99742C79.2065 7.29151 78.4833 6.75139 77.6295 6.37704C76.7858 6.0027 75.8316 5.81553 74.7669 5.81553C73.7022 5.81553 72.7429 6.0027 71.8891 6.37704C71.0454 6.75139 70.3222 7.29151 69.7195 7.99742C69.1269 8.70332 68.6699 9.56431 68.3485 10.5804C68.027 11.5858 67.8663 12.7248 67.8663 13.9976C67.8663 15.2704 68.027 16.4148 68.3485 17.4308C68.6699 18.4362 69.1269 19.2919 69.7195 19.9978C70.3222 20.693 71.0454 21.2278 71.8891 21.6021C72.7429 21.9764 73.7022 22.1636 74.7669 22.1636C75.8316 22.1636 76.7858 21.9764 77.6295 21.6021C78.4833 21.2278 79.2065 20.693 79.7991 19.9978C80.3918 19.2919 80.8488 18.4362 81.1702 17.4308C81.4916 16.4148 81.6524 15.2704 81.6524 13.9976Z" fill="black"/>
<path d="M234.259 45.4622L234.252 46.6592H227.969V35.8029H234.252V36.9999H229.349V40.606H233.319V41.7576H229.349V45.4622H234.259Z" fill="black"/>
<path d="M220.444 45.4925C220.866 45.4925 221.243 45.4168 221.575 45.2653C221.907 45.1137 222.187 44.9016 222.415 44.6289C222.647 44.3561 222.822 44.0304 222.941 43.6516C223.064 43.2728 223.126 42.8561 223.126 42.4015V35.8029H224.499V42.4015C224.499 43.0278 224.404 43.6087 224.215 44.144C224.03 44.6794 223.762 45.144 223.411 45.538C223.064 45.9269 222.64 46.2325 222.137 46.4547C221.634 46.6769 221.07 46.788 220.444 46.788C219.818 46.788 219.253 46.6769 218.75 46.4547C218.248 46.2325 217.821 45.9269 217.47 45.538C217.119 45.144 216.848 44.6794 216.659 44.144C216.474 43.6087 216.381 43.0278 216.381 42.4015V35.8029H217.754V42.394C217.754 42.8485 217.814 43.2652 217.932 43.644C218.056 44.0228 218.231 44.3486 218.459 44.6213C218.691 44.894 218.973 45.1087 219.305 45.2653C219.642 45.4168 220.022 45.4925 220.444 45.4925Z" fill="black"/>
<path d="M204.901 41.2348C204.901 41.9015 204.986 42.5 205.157 43.0303C205.328 43.5556 205.57 44.0026 205.883 44.3713C206.201 44.7349 206.582 45.0153 207.028 45.2122C207.474 45.4042 207.97 45.5001 208.515 45.5001C209.065 45.5001 209.564 45.4042 210.009 45.2122C210.455 45.0153 210.835 44.7349 211.148 44.3713C211.461 44.0026 211.703 43.5556 211.873 43.0303C212.044 42.5 212.13 41.9015 212.13 41.2348C212.13 40.5682 212.044 39.9697 211.873 39.4393C211.703 38.909 211.461 38.462 211.148 38.0984C210.835 37.7297 210.455 37.4468 210.009 37.2499C209.564 37.0529 209.065 36.9544 208.515 36.9544C207.97 36.9544 207.474 37.0529 207.028 37.2499C206.582 37.4468 206.201 37.7297 205.883 38.0984C205.57 38.462 205.328 38.909 205.157 39.4393C204.986 39.9697 204.901 40.5682 204.901 41.2348ZM214.015 48.9017H212.877C212.706 48.9017 212.554 48.8765 212.421 48.826C212.288 48.7755 212.168 48.6871 212.058 48.5608L210.273 46.485C209.732 46.6769 209.146 46.7729 208.515 46.7729C207.766 46.7729 207.083 46.639 206.466 46.3714C205.85 46.0986 205.321 45.7173 204.88 45.2274C204.438 44.7375 204.097 44.1541 203.855 43.4773C203.613 42.7955 203.492 42.048 203.492 41.2348C203.492 40.4217 203.613 39.6767 203.855 38.9999C204.097 38.3181 204.438 37.7322 204.88 37.2423C205.321 36.7473 205.85 36.3635 206.466 36.0907C207.083 35.818 207.766 35.6816 208.515 35.6816C209.265 35.6816 209.948 35.818 210.564 36.0907C211.186 36.3635 211.717 36.7473 212.158 37.2423C212.599 37.7322 212.941 38.3181 213.183 38.9999C213.424 39.6767 213.545 40.4217 213.545 41.2348C213.545 41.745 213.496 42.2298 213.396 42.6894C213.301 43.149 213.161 43.5783 212.976 43.9773C212.791 44.3713 212.566 44.7299 212.3 45.0531C212.035 45.3764 211.736 45.6567 211.404 45.8941L214.015 48.9017Z" fill="black"/>
<path d="M200.514 46.6592H199.134V35.8029H200.514V46.6592Z" fill="black"/>
<path d="M196.625 37.0377H193.324V46.6592H191.951V37.0377H188.642V35.8029H196.625V37.0377Z" fill="black"/>
<path d="M182.205 45.4925C182.628 45.4925 183.005 45.4168 183.337 45.2653C183.669 45.1137 183.949 44.9016 184.176 44.6289C184.409 44.3561 184.584 44.0304 184.703 43.6516C184.826 43.2728 184.888 42.8561 184.888 42.4015V35.8029H186.261V42.4015C186.261 43.0278 186.166 43.6087 185.976 44.144C185.791 44.6794 185.523 45.144 185.172 45.538C184.826 45.9269 184.402 46.2325 183.899 46.4547C183.396 46.6769 182.832 46.788 182.205 46.788C181.579 46.788 181.015 46.6769 180.512 46.4547C180.009 46.2325 179.582 45.9269 179.231 45.538C178.88 45.144 178.61 44.6794 178.42 44.144C178.235 43.6087 178.143 43.0278 178.143 42.4015V35.8029H179.516V42.394C179.516 42.8485 179.575 43.2652 179.694 43.644C179.817 44.0228 179.993 44.3486 180.22 44.6213C180.453 44.894 180.735 45.1087 181.067 45.2653C181.404 45.4168 181.783 45.4925 182.205 45.4925Z" fill="black"/>
<path d="M175.3 41.2348C175.3 42.048 175.179 42.7955 174.937 43.4773C174.695 44.1541 174.354 44.7375 173.913 45.2274C173.472 45.7173 172.94 46.0986 172.319 46.3714C171.702 46.639 171.019 46.7729 170.27 46.7729C169.52 46.7729 168.837 46.639 168.221 46.3714C167.604 46.0986 167.075 45.7173 166.634 45.2274C166.193 44.7375 165.852 44.1541 165.61 43.4773C165.368 42.7955 165.247 42.048 165.247 41.2348C165.247 40.4217 165.368 39.6767 165.61 38.9999C165.852 38.3181 166.193 37.7322 166.634 37.2423C167.075 36.7473 167.604 36.3635 168.221 36.0907C168.837 35.818 169.52 35.6816 170.27 35.6816C171.019 35.6816 171.702 35.818 172.319 36.0907C172.94 36.3635 173.472 36.7473 173.913 37.2423C174.354 37.7322 174.695 38.3181 174.937 38.9999C175.179 39.6767 175.3 40.4217 175.3 41.2348ZM173.884 41.2348C173.884 40.5682 173.799 39.9697 173.628 39.4393C173.457 38.909 173.215 38.462 172.902 38.0984C172.589 37.7297 172.21 37.4468 171.764 37.2499C171.318 37.0529 170.82 36.9544 170.27 36.9544C169.724 36.9544 169.229 37.0529 168.783 37.2499C168.337 37.4468 167.955 37.7297 167.637 38.0984C167.324 38.462 167.082 38.909 166.912 39.4393C166.741 39.9697 166.656 40.5682 166.656 41.2348C166.656 41.9015 166.741 42.5 166.912 43.0303C167.082 43.5556 167.324 44.0026 167.637 44.3713C167.955 44.7349 168.337 45.0153 168.783 45.2122C169.229 45.4042 169.724 45.5001 170.27 45.5001C170.82 45.5001 171.318 45.4042 171.764 45.2122C172.21 45.0153 172.589 44.7349 172.902 44.3713C173.215 44.0026 173.457 43.5556 173.628 43.0303C173.799 42.5 173.884 41.9015 173.884 41.2348Z" fill="black"/>
<path d="M159.263 45.4925C159.657 45.4925 159.996 45.4446 160.281 45.3486C160.565 45.2526 160.798 45.1188 160.978 44.9471C161.163 44.7703 161.298 44.5632 161.384 44.3258C161.469 44.0834 161.512 43.8183 161.512 43.5304C161.512 42.9697 161.324 42.5278 160.95 42.2046C160.575 41.8763 160.013 41.7121 159.263 41.7121H157.058V45.4925H159.263ZM157.058 36.962V40.6666H158.879C159.268 40.6666 159.605 40.6212 159.89 40.5303C160.179 40.4394 160.416 40.3131 160.601 40.1515C160.791 39.9899 160.931 39.7954 161.021 39.5681C161.111 39.3358 161.156 39.0833 161.156 38.8105C161.156 38.1691 160.976 37.7019 160.615 37.409C160.255 37.111 159.695 36.962 158.936 36.962H157.058ZM158.936 35.8029C159.562 35.8029 160.101 35.8685 160.551 35.9998C161.007 36.1312 161.379 36.318 161.668 36.5605C161.962 36.8029 162.178 37.1009 162.316 37.4544C162.453 37.8029 162.522 38.1969 162.522 38.6363C162.522 38.904 162.482 39.1615 162.401 39.409C162.325 39.6515 162.209 39.8787 162.052 40.0909C161.896 40.303 161.697 40.4949 161.455 40.6666C161.218 40.8333 160.938 40.9697 160.615 41.0757C161.365 41.2273 161.927 41.5126 162.301 41.9318C162.681 42.346 162.871 42.8915 162.871 43.5682C162.871 44.0279 162.79 44.4471 162.629 44.8259C162.472 45.2047 162.24 45.5304 161.932 45.8032C161.628 46.0759 161.253 46.288 160.807 46.4395C160.361 46.586 159.854 46.6592 159.285 46.6592H155.685V35.8029H158.936Z" fill="black"/>
<path d="M148.129 45.4622L148.122 46.6592H141.839V35.8029H148.122V36.9999H143.219V40.606H147.189V41.7576H143.219V45.4622H148.129Z" fill="black"/>
<path d="M134.746 41.0606C135.145 41.0606 135.496 41.0101 135.799 40.9091C136.108 40.803 136.364 40.6565 136.568 40.4697C136.776 40.2777 136.933 40.0505 137.037 39.7878C137.142 39.5252 137.194 39.2348 137.194 38.9166C137.194 38.2701 136.995 37.7827 136.596 37.4544C136.198 37.1261 135.6 36.962 134.803 36.962H133.295V41.0606H134.746ZM139.456 46.6592H138.233C137.981 46.6592 137.796 46.5557 137.678 46.3486L135.031 42.4697C134.95 42.3485 134.863 42.2627 134.768 42.2121C134.678 42.1566 134.535 42.1288 134.341 42.1288H133.295V46.6592H131.922V35.8029H134.803C135.448 35.8029 136.006 35.8736 136.475 36.015C136.945 36.1514 137.331 36.3509 137.635 36.6135C137.943 36.8761 138.171 37.1943 138.318 37.5681C138.465 37.9368 138.539 38.3509 138.539 38.8105C138.539 39.1944 138.482 39.553 138.368 39.8863C138.254 40.2197 138.088 40.5202 137.87 40.7879C137.656 41.0505 137.393 41.2752 137.08 41.4621C136.772 41.649 136.421 41.7904 136.027 41.8864C136.202 41.9924 136.354 42.1465 136.482 42.3485L139.456 46.6592Z" fill="black"/>
<path d="M126.71 42.6288L125.109 38.212C125.062 38.0807 125.012 37.9292 124.96 37.7575C124.908 37.5807 124.858 37.3938 124.81 37.1968C124.711 37.6059 124.609 37.9469 124.504 38.2196L122.904 42.6288H126.71ZM129.584 46.6592H128.517C128.394 46.6592 128.294 46.6264 128.218 46.5608C128.142 46.4951 128.086 46.4118 128.048 46.3107L127.094 43.6895H122.519L121.566 46.3107C121.537 46.4017 121.483 46.4825 121.402 46.5532C121.322 46.6239 121.222 46.6592 121.103 46.6592H120.036L124.113 35.8029H125.508L129.584 46.6592Z" fill="black"/>
<path d="M119.393 35.8029L116.213 46.6592H114.975L112.392 38.3787C112.369 38.2979 112.345 38.212 112.321 38.1211C112.302 38.0302 112.281 37.9342 112.257 37.8332C112.233 37.9342 112.21 38.0302 112.186 38.1211C112.162 38.212 112.139 38.2979 112.115 38.3787L109.518 46.6592H108.28L105.1 35.8029H106.245C106.368 35.8029 106.47 35.8357 106.551 35.9014C106.636 35.967 106.691 36.0503 106.715 36.1514L108.821 43.697C108.854 43.8334 108.885 43.9799 108.913 44.1364C108.946 44.293 108.977 44.4597 109.006 44.6365C109.039 44.4597 109.072 44.293 109.105 44.1364C109.143 43.9748 109.183 43.8284 109.226 43.697L111.624 36.1514C111.652 36.0655 111.707 35.9872 111.788 35.9165C111.873 35.8407 111.975 35.8029 112.093 35.8029H112.492C112.615 35.8029 112.715 35.8357 112.791 35.9014C112.867 35.967 112.924 36.0503 112.961 36.1514L115.352 43.697C115.395 43.8284 115.433 43.9698 115.466 44.1213C115.504 44.2728 115.539 44.4319 115.573 44.5986C115.596 44.4319 115.622 44.2728 115.651 44.1213C115.679 43.9698 115.71 43.8284 115.743 43.697L117.856 36.1514C117.88 36.0604 117.932 35.9796 118.013 35.9089C118.098 35.8382 118.2 35.8029 118.319 35.8029H119.393Z" fill="black"/>
<path d="M103.672 37.0377H100.371V46.6592H98.9976V37.0377H95.6892V35.8029H103.672V37.0377Z" fill="black"/>
<path d="M89.1161 36.9999V40.7954H93.3068V41.9924H89.1161V46.6592H87.7358V35.8029H94.0182V36.9999H89.1161Z" fill="black"/>
<path d="M84.765 41.2348C84.765 42.048 84.644 42.7955 84.4021 43.4773C84.1602 44.1541 83.8187 44.7375 83.3776 45.2274C82.9364 45.7173 82.4052 46.0986 81.7838 46.3714C81.1672 46.639 80.4842 46.7729 79.7348 46.7729C78.9853 46.7729 78.3023 46.639 77.6857 46.3714C77.0691 46.0986 76.5402 45.7173 76.0991 45.2274C75.658 44.7375 75.3165 44.1541 75.0746 43.4773C74.8326 42.7955 74.7117 42.048 74.7117 41.2348C74.7117 40.4217 74.8326 39.6767 75.0746 38.9999C75.3165 38.3181 75.658 37.7322 76.0991 37.2423C76.5402 36.7473 77.0691 36.3635 77.6857 36.0907C78.3023 35.818 78.9853 35.6816 79.7348 35.6816C80.4842 35.6816 81.1672 35.818 81.7838 36.0907C82.4052 36.3635 82.9364 36.7473 83.3776 37.2423C83.8187 37.7322 84.1602 38.3181 84.4021 38.9999C84.644 39.6767 84.765 40.4217 84.765 41.2348ZM83.3491 41.2348C83.3491 40.5682 83.2637 39.9697 83.093 39.4393C82.9222 38.909 82.6803 38.462 82.3672 38.0984C82.0542 37.7297 81.6747 37.4468 81.2289 37.2499C80.783 37.0529 80.285 36.9544 79.7348 36.9544C79.1893 36.9544 78.6936 37.0529 78.2478 37.2499C77.8019 37.4468 77.4201 37.7297 77.1023 38.0984C76.7892 38.462 76.5473 38.909 76.3766 39.4393C76.2058 39.9697 76.1204 40.5682 76.1204 41.2348C76.1204 41.9015 76.2058 42.5 76.3766 43.0303C76.5473 43.5556 76.7892 44.0026 77.1023 44.3713C77.4201 44.7349 77.8019 45.0153 78.2478 45.2122C78.6936 45.4042 79.1893 45.5001 79.7348 45.5001C80.285 45.5001 80.783 45.4042 81.2289 45.2122C81.6747 45.0153 82.0542 44.7349 82.3672 44.3713C82.6803 44.0026 82.9222 43.5556 83.093 43.0303C83.2637 42.5 83.3491 41.9015 83.3491 41.2348Z" fill="black"/>
<path d="M71.8378 37.4999C71.7951 37.5756 71.7476 37.6337 71.6955 37.6741C71.648 37.7095 71.5887 37.7272 71.5176 37.7272C71.437 37.7272 71.3421 37.6842 71.233 37.5984C71.1239 37.5125 70.9864 37.4191 70.8203 37.3181C70.6591 37.212 70.4622 37.116 70.2298 37.0302C70.0021 36.9443 69.7247 36.9014 69.3974 36.9014C69.0891 36.9014 68.8163 36.9468 68.5792 37.0377C68.3467 37.1236 68.1499 37.2423 67.9886 37.3938C67.8321 37.5453 67.7135 37.7246 67.6329 37.9317C67.5523 38.1337 67.5119 38.3534 67.5119 38.5908C67.5119 38.8939 67.5807 39.1464 67.7183 39.3484C67.8606 39.5454 68.0455 39.7146 68.2732 39.856C68.5056 39.9974 68.7665 40.1212 69.0559 40.2272C69.3499 40.3282 69.6488 40.4343 69.9523 40.5454C70.2606 40.6565 70.5595 40.7828 70.8488 40.9242C71.1429 41.0606 71.4038 41.2348 71.6314 41.447C71.8638 41.6591 72.0488 41.9192 72.1864 42.2273C72.3287 42.5354 72.3998 42.9142 72.3998 43.3637C72.3998 43.8385 72.3239 44.2854 72.1722 44.7046C72.0204 45.1188 71.7974 45.4799 71.5034 45.788C71.214 46.0961 70.8559 46.3385 70.429 46.5153C70.0069 46.6921 69.5254 46.7805 68.9847 46.7805C68.3207 46.7805 67.7183 46.6542 67.1775 46.4017C66.6368 46.1441 66.1744 45.7981 65.7902 45.3638L66.1886 44.6668C66.2265 44.6112 66.2716 44.5658 66.3238 44.5304C66.3807 44.49 66.4423 44.4698 66.5088 44.4698C66.5704 44.4698 66.6392 44.4976 66.7151 44.5531C66.7957 44.6036 66.8858 44.6693 66.9854 44.7501C67.0851 44.8309 67.1989 44.9193 67.327 45.0153C67.455 45.1112 67.5997 45.1996 67.761 45.2804C67.927 45.3612 68.1143 45.4294 68.323 45.485C68.5317 45.5355 68.7665 45.5607 69.0274 45.5607C69.3547 45.5607 69.6464 45.5127 69.9025 45.4168C70.1587 45.3208 70.3745 45.187 70.55 45.0153C70.7302 44.8385 70.8678 44.6289 70.9626 44.3865C71.0575 44.144 71.1049 43.8738 71.1049 43.5758C71.1049 43.2475 71.0338 42.9798 70.8915 42.7728C70.7539 42.5606 70.5713 42.3839 70.3436 42.2424C70.116 42.101 69.8551 41.9823 69.561 41.8864C69.2669 41.7854 68.9681 41.6844 68.6645 41.5833C68.361 41.4773 68.0621 41.3561 67.7681 41.2197C67.474 41.0833 67.2131 40.9065 66.9854 40.6894C66.7578 40.4722 66.5728 40.202 66.4305 39.8787C66.2929 39.5504 66.2242 39.1464 66.2242 38.6666C66.2242 38.2827 66.2929 37.9115 66.4305 37.5529C66.5728 37.1943 66.7767 36.8761 67.0424 36.5983C67.3127 36.3206 67.6424 36.0983 68.0313 35.9317C68.425 35.765 68.8756 35.6816 69.3831 35.6816C69.9523 35.6816 70.4693 35.7776 70.9342 35.9695C71.4037 36.1615 71.8164 36.4392 72.1722 36.8029L71.8378 37.4999Z" fill="black"/>
</svg>
