<svg width="2790" height="432" viewBox="0 0 2790 432" fill="none" xmlns="http://www.w3.org/2000/svg">
<path fill-rule="evenodd" clip-rule="evenodd" d="M2622.29 49.2246C2656.45 49.2246 2685.9 54.8535 2710.65 66.1113C2735.75 77.3692 2755.1 93.5526 2768.69 114.661C2782.29 135.418 2789.08 160.045 2789.08 188.542C2789.08 217.039 2782.29 241.665 2768.69 262.422C2756.85 280.199 2740.64 294.372 2720.06 304.939L2776.41 388.277H2644.88L2603.09 325.748H2569.48V388.277H2446.08V49.2246H2622.29ZM2569.48 231.815H2614.45C2631.53 231.815 2644.08 227.945 2652.09 220.205C2660.46 212.465 2664.64 201.911 2664.64 188.542C2664.64 175.173 2660.46 164.619 2652.09 156.879C2644.08 149.139 2631.53 145.27 2614.45 145.27H2569.48V231.815Z" fill="#4338CA"/>
<path d="M2228.74 324.693H2412.35V388.277H2107.04V49.2246H2405.53V143.158H2228.74V186.431H2362.59V276.143H2228.74V324.693Z" fill="#4338CA"/>
<path d="M1821.78 287.636L1821.72 287.68L1880.04 388H1429.04L1458.82 337.897H1785.76C1788.85 337.897 1790.79 334.552 1789.24 331.877L1780.71 317.142L1780.6 317.224L1765.26 290.649C1764.18 288.785 1762.19 287.636 1760.04 287.636H1487.8L1520.91 230.525H1723.42C1726.51 230.525 1728.44 227.183 1726.9 224.508L1702.79 182.762C1701.66 181.502 1700.03 180.758 1698.3 180.758L1549.58 180.757L1582.69 123.646L1661.79 123.651C1664.59 123.652 1666.44 120.918 1665.62 118.415L1659.02 106.99L1659.05 106.937L1641.44 76.5038C1640.36 74.6431 1638.37 73.4967 1636.22 73.4967H1611.95L1626.05 49.4259L1654.48 0L1821.78 287.636Z" fill="#1E1E26"/>
<path d="M2134.43 49.2773L1937.95 431.277H1798.43L1871.03 296.275L1727.54 49.3965H1855.43L1929.53 187.51L2003.86 49.2773H2134.43Z" fill="#4338CA"/>
<path d="M1211.1 388.277V50.2773H1331.04L1331.04 286.277H1488.95L1429.45 388.277H1211.1Z" fill="#4338CA"/>
<path fill-rule="evenodd" clip-rule="evenodd" d="M1010.7 49C1061.27 49 1098.58 58.1472 1122.65 76.4414C1146.71 94.3838 1158.75 117.427 1158.75 145.572C1158.75 164.218 1153.51 180.929 1143.05 195.705C1136.1 205.618 1117.7 218.106 1106.87 224.948C1108 225.321 1109.24 225.772 1110.62 226.312C1131.54 234.404 1147.58 246.19 1158.75 261.67C1170.25 276.798 1176.01 295.092 1176.01 316.553C1176.01 346.862 1164.13 370.865 1140.37 388.562H815.041V49H1010.7ZM936.41 265.895V323.943H1010.7C1024.3 323.943 1034.41 321.48 1041.04 316.555C1048.01 311.629 1051.5 304.417 1051.5 294.919C1051.5 285.42 1048.01 278.208 1041.04 273.282C1034.41 268.357 1024.3 265.895 1010.7 265.895H936.41ZM936.41 143.459V198.342H993.956C1007.91 198.342 1018.02 196.055 1024.3 191.481C1030.92 186.556 1034.24 179.696 1034.24 170.9C1034.24 161.753 1030.92 154.893 1024.3 150.319C1018.02 145.746 1007.91 143.459 993.956 143.459H936.41Z" fill="#4338CA"/>
<path d="M706.848 388.277H465.454C461.888 385.41 458.458 382.373 455.165 379.168C423.853 348.698 408.197 305.97 408.197 250.984V48.7246H531.356V247.306C531.356 275.325 536.401 295.288 546.49 307.196C556.579 318.753 570.148 324.532 587.195 324.532C604.59 324.532 618.159 318.753 627.9 307.196C637.989 295.288 643.034 275.325 643.034 247.306V48.7246H764.105V250.984C764.105 305.97 748.449 348.698 717.138 379.168C713.844 382.373 706.848 388.277 706.848 388.277Z" fill="#4338CA"/>
<path d="M322.848 388.125H0L44.492 288.246C64.0061 299.473 85.6668 308.57 109.474 315.538C133.671 322.12 157.088 325.41 179.725 325.41C192.994 325.41 203.337 324.636 210.752 323.087C218.558 321.152 224.217 318.635 227.729 315.538C231.242 312.054 232.998 307.99 232.998 303.344C232.998 295.989 228.9 290.182 220.704 285.923C212.508 281.665 201.581 278.181 187.921 275.471C174.651 272.374 160.016 269.277 144.014 266.18C128.012 262.696 111.816 258.244 95.4238 252.824C79.4223 247.404 64.5916 240.242 50.9317 231.338C37.6621 222.434 26.9293 210.821 18.7334 196.497C10.5375 181.786 6.43954 163.591 6.43954 141.912C6.43954 116.749 13.4646 93.9083 27.5148 73.3906C41.9552 52.4857 63.2256 35.8393 91.3259 23.4512C119.816 11.0632 155.137 4.86914 197.287 4.86914C224.998 4.86914 252.317 7.77258 279.247 13.5795C306.176 19.3864 330.374 28.2903 351.839 40.2912L310.274 139.589C289.979 129.524 270.27 121.975 251.146 116.942C232.413 111.91 214.07 109.393 196.117 109.393C182.847 109.393 172.309 110.555 164.504 112.878C156.698 115.2 151.039 118.297 147.527 122.169C144.404 126.04 142.843 130.298 142.843 134.944C142.843 141.912 146.941 147.525 155.137 151.784C163.333 155.655 174.066 158.946 187.335 161.656C200.995 164.365 215.826 167.269 231.827 170.366C248.219 173.463 264.416 177.721 280.418 183.141C296.419 188.561 311.055 195.723 324.324 204.627C337.984 213.531 348.912 225.144 357.108 239.468C365.304 253.792 369.402 271.6 369.402 292.892C369.402 317.668 362.182 340.508 347.741 361.413C341.041 371.197 322.848 388.125 322.848 388.125Z" fill="#4338CA"/>
</svg>
