<svg width="280" height="40" viewBox="0 0 280 40" fill="none" xmlns="http://www.w3.org/2000/svg">
<g clip-path="url(#clip0_65_1366)">
<mask id="mask0_65_1366" style="mask-type:luminance" maskUnits="userSpaceOnUse" x="0" y="0" width="280" height="40">
<path d="M280 0H0V40H280V0Z" fill="white"/>
</mask>
<g mask="url(#mask0_65_1366)">
<path d="M28.4668 26.3066V26.0133C28.1734 18.48 21.6801 16.7066 16.3201 15.4133C13.1734 14.68 10.4668 14.04 10.4668 12.56C10.4668 10.9866 11.8934 10.0933 14.3068 10.0933C17.7468 10.0933 21.0001 11.32 23.3601 13.44L23.9468 14.0266L28.3734 8.26662C24.7201 4.77328 20.2001 3.19995 14.9868 3.19995C7.40009 3.19995 2.68009 7.53329 2.53343 12.9066V13.8C2.82676 21.2933 9.17343 22.96 14.3868 24.2C17.7334 24.9866 20.6401 25.68 20.6401 27.4533C20.6401 28.8266 19.1201 30.3066 15.7201 30.3066C10.6534 30.3066 7.36009 27.64 5.82676 26.0666L5.18676 25.3733L1.01343 31.2933C4.65343 35.0266 9.08009 37.2 15.3734 37.2C24.2268 37.2 28.4534 32.6666 28.4534 26.6533V26.3066H28.4668Z" fill="#6E62FD"/>
<path d="M58.5068 3.38659V23.1866C58.5068 27.6399 56.0001 30.2399 51.6135 30.2399C47.2401 30.2399 44.6801 27.6399 44.6801 23.1866V3.38659H36.8135V23.4399C36.8135 31.6399 41.6401 37.3333 51.6268 37.3333C61.6135 37.3333 66.4401 31.6266 66.4401 23.3333V3.33325H58.5201V3.38659H58.5068Z" fill="#6E62FD"/>
<path d="M95.7733 19.5067C98.8266 18.8133 101.427 16.0133 101.427 11.8267C101.427 7.44001 98.2266 3.34668 91.9866 3.34668H74.72V36.68H92.5333C98.7333 36.68 102.08 32.6933 102.08 27.6933C102.067 23.4933 99.2133 20.0533 95.7733 19.5067ZM90.6533 29.7333H82.48V23.6H90.6533C92.7733 23.6 94.0933 24.8 94.0933 26.6933C94.1066 29.3333 91.9866 29.7333 90.6533 29.7333ZM82.4933 10.2667H90.4666C92.2933 10.2667 93.52 11.4133 93.52 13.1067C93.52 14.8 92.2933 15.9067 90.4666 15.9067H82.4933V10.2667Z" fill="#6E62FD"/>
<path d="M118.187 29.6266V3.33325H110.413V36.6666H131.28V29.6266H118.187Z" fill="#6E62FD"/>
<path d="M196.733 3.33325L189.6 15.1733L182.36 3.33325H173.507L185.707 22.3733V36.6666H193.48V22.3733L205.64 3.33325H196.733Z" fill="#6E62FD"/>
<path d="M214.013 3.33325V36.6666H237.24V29.6266H221.787V23.6799H236.84V16.6266H221.787V10.3733H237.24V3.33325H214.013Z" fill="#6E62FD"/>
<path d="M245.587 17.7733V36.6666H253.36V17.7733H245.587ZM274.96 30.5732L271.32 24.2799C275.947 22.8799 278.507 18.7866 278.507 14.0799C278.507 8.22658 274.613 3.33325 267.493 3.33325H245.6V10.3733H266.56C269.013 10.3733 270.587 11.8666 270.587 14.0666C270.587 16.0133 269.413 17.3599 267.493 17.7199C267.187 17.7599 266.867 17.7733 266.56 17.7733H259.773L263.613 24.8133L270.107 36.6532H278.52L274.96 30.5732Z" fill="#6E62FD"/>
<path d="M174.427 36.8533H138.8C138.427 36.8533 138.133 36.5599 138.133 36.1866C138.133 36.0799 138.16 35.9599 138.213 35.8666L156.027 3.67994C156.2 3.35994 156.613 3.23994 156.933 3.41328C157.04 3.47994 157.133 3.55994 157.2 3.67994L175.013 35.8666C175.187 36.1866 175.08 36.5999 174.747 36.7733C174.653 36.8266 174.533 36.8533 174.427 36.8533ZM143.987 30.2533L141.493 34.7733H171.733L169.24 30.2533H143.987ZM147.907 23.1333L145.52 27.4799H167.72L165.333 23.1333H147.907ZM151.827 15.9999L149.44 20.3466H163.787L161.4 15.9999H151.827ZM156.613 7.31994L153.36 13.2266H159.867L156.613 7.31994Z" fill="black"/>
</g>
</g>
<defs>
<clipPath id="clip0_65_1366">
<rect width="280" height="40" fill="white"/>
</clipPath>
</defs>
</svg>
