<svg width="240" height="53" viewBox="0 0 240 53" fill="none" xmlns="http://www.w3.org/2000/svg">
<path d="M101.383 41.7246L92.5831 6.87601H100.434L106.334 30.9958H106.434L114.935 6.87601H121.685L130.186 30.9958H130.286L136.237 6.87601H144.038L135.236 41.7246H127.236L118.334 18.4292H118.236L109.284 41.7246H101.383ZM146.443 6.87601H153.842V18.4292H153.943C154.597 17.234 155.891 16.2838 157.404 15.6405C158.808 15.0433 160.845 14.6642 162.644 14.6546C164.624 14.6449 167.361 15.1505 169.294 16.1446C171.26 17.2042 172.745 18.6287 173.744 20.4151C174.811 22.27 175.344 24.3551 175.344 26.6739V41.7224H167.945V27.6657C167.945 25.6142 167.327 24.0244 166.094 22.897C164.86 21.7719 163.175 21.2082 161.042 21.2082C158.909 21.2082 157.208 21.8039 155.842 22.9968C154.508 24.1875 153.842 25.7453 153.842 27.6657V41.7224H146.443V6.87601ZM177.921 28.5683C177.921 26.4825 178.321 24.5784 179.12 22.8568C179.921 21.1359 181.012 19.6697 182.396 18.4612C183.779 17.2519 185.372 16.3174 187.17 15.6546C188.971 14.9934 190.87 14.6605 192.872 14.6605C194.873 14.6605 196.88 15.0008 198.697 15.6785C200.514 16.3576 202.098 17.3018 203.448 18.5089C204.797 19.7182 205.865 21.1739 206.648 22.8792C207.431 24.5844 207.824 26.4803 207.824 28.566C207.824 30.6518 207.422 32.5975 206.624 34.3027C205.824 36.008 204.741 37.466 203.374 38.6731C202.006 39.8816 200.416 40.8162 198.599 41.4796C196.765 42.1446 194.826 42.4812 192.874 42.4737C190.874 42.4737 188.915 42.1327 187.098 41.4558C185.281 40.7767 183.697 39.8243 182.348 38.5993C180.998 37.3744 179.923 35.9104 179.123 34.203C178.322 32.4977 177.923 30.6197 177.923 28.566L177.921 28.5683ZM200.424 28.5683C200.424 26.3172 199.732 24.5122 198.348 23.1539C196.964 21.7972 195.14 21.1181 192.874 21.1181C191.773 21.1181 190.756 21.3013 189.824 21.6639C188.889 22.0288 188.089 22.5322 187.423 23.18C186.755 23.8249 186.239 24.612 185.873 25.5383C185.506 26.4661 185.324 27.4744 185.324 28.5683C185.324 29.6614 185.506 30.6637 185.873 31.5736C186.224 32.461 186.761 33.2647 187.447 33.9319C188.136 34.5988 188.952 35.1224 189.848 35.4718C190.764 35.8367 191.773 36.0177 192.874 36.0177C193.975 36.0177 194.989 35.8367 195.923 35.4718C196.856 35.1077 197.657 34.6036 198.324 33.9558C198.99 33.3109 199.508 32.5238 199.874 31.5975C200.241 30.6711 200.424 29.6614 200.424 28.5683ZM210.498 14.6449H217.599V18.4299H217.7C218.162 17.4336 220.116 15.7723 221.649 15.3262C223.159 14.8828 224.726 14.6568 226.301 14.6553C228.3 14.6553 230.132 15.0194 231.802 15.7485C233.466 16.4775 234.909 17.4716 236.125 18.7285C237.345 19.9877 238.292 21.4591 238.976 23.1487C239.661 24.8376 240 26.6426 240 28.563C240 30.4827 239.659 32.3868 238.976 34.0764C238.292 35.7652 237.343 37.2292 236.125 38.472C234.909 39.7133 233.46 40.6911 231.776 41.4022C230.092 42.1133 228.267 42.47 226.302 42.47C225.668 42.47 224.96 42.4127 224.176 42.2965C223.397 42.1815 222.628 42.0072 221.876 41.7753C221.126 41.5437 220.408 41.2533 219.727 40.9063C219.042 40.5578 218.466 40.1534 218.001 39.6895H217.901V52.9017H210.503V14.6449H210.498ZM232.599 28.563C232.599 26.312 231.914 24.5151 230.549 23.1748C229.182 21.8337 227.364 21.1628 225.098 21.1628C224.298 21.1628 223.475 21.296 222.625 21.5589C221.793 21.8145 221.009 22.2007 220.301 22.7027C219.615 23.1835 219.029 23.7907 218.575 24.4913C218.127 25.1861 217.898 25.9813 217.898 26.8757V30.2035C217.898 31.3629 218.24 32.3734 218.925 33.2334C219.606 34.0945 220.49 34.7764 221.498 35.2194C222.566 35.7496 223.781 36.0139 225.149 36.0139C227.381 36.0139 229.182 35.3274 230.549 33.9528C231.914 32.5782 232.599 30.7813 232.599 28.5645V28.563ZM12.7584 0.901733C7.48437 0.901733 3.84838 3.20045 1.09738 5.80001C1.09738 5.80001 -0.0141141 6.84548 0.000135858 6.8775L11.5554 18.3547L23.1084 6.8775C20.9206 3.88552 16.7956 0.901733 12.7584 0.901733ZM41.2906 0.901733C36.0166 0.901733 32.3806 3.20045 29.6289 5.80001C29.6289 5.80001 28.6149 6.81793 28.5684 6.8775L14.2861 21.066L25.8234 32.5253L51.6406 6.8775C49.4521 3.88552 45.3293 0.901733 41.2906 0.901733ZM69.9008 0.901733C64.6268 0.901733 60.9909 3.20045 58.2399 5.80001C58.2399 5.80001 57.1824 6.82537 57.1426 6.8775L28.5721 35.2604L31.5961 38.2643C36.2746 42.9108 43.9329 42.9108 48.6121 38.2643L80.2148 6.8775H80.2508C78.0631 3.88552 73.9396 0.901733 69.9008 0.901733Z" fill="#FA4616"/>
</svg>
